<?xml version="1.0" standalone="no"?>
<!DOCTYPE svg PUBLIC "-//W3C//DTD SVG 20010904//EN"
 "http://www.w3.org/TR/2001/REC-SVG-20010904/DTD/svg10.dtd">
<svg version="1.0" xmlns="http://www.w3.org/2000/svg"
 width="1024.000000pt" height="1024.000000pt" viewBox="0 0 1024.000000 1024.000000"
 preserveAspectRatio="xMidYMid meet">

<g transform="translate(0.000000,1024.000000) scale(0.100000,-0.100000)"
fill="#000000" stroke="none">
<path d="M1750 8607 l0 -103 146 -138 c80 -77 152 -149 160 -161 12 -19 11
-52 -11 -271 -45 -444 -158 -1410 -212 -1819 -24 -181 -25 -207 -14 -285 9
-62 9 -99 2 -132 -14 -61 -72 -451 -67 -455 1 -2 39 -8 84 -14 44 -7 86 -15
93 -20 13 -8 12 -17 -106 -694 -52 -295 -173 -954 -216 -1175 l-31 -155 11
-290 c6 -159 14 -347 18 -417 l6 -127 66 -10 c275 -44 478 -75 670 -101 123
-16 226 -32 230 -34 7 -5 124 17 372 70 l165 35 83 -31 c45 -16 94 -30 109
-30 15 0 72 16 127 36 l100 35 1571 0 1571 0 124 -42 123 -43 98 34 98 34 83
-18 c45 -9 155 -32 245 -51 l162 -34 303 44 c166 24 393 58 503 75 l201 32 18
327 c31 536 34 488 -72 1061 -147 792 -268 1489 -259 1498 3 2 46 9 96 15 64
7 90 14 90 23 0 11 -28 210 -67 474 -3 19 2 63 11 97 9 35 14 73 11 85 -3 13
-16 111 -30 218 -13 107 -38 301 -54 430 -45 351 -147 1198 -172 1417 l-21
191 113 108 c63 60 135 130 162 155 l47 46 0 102 c0 65 -4 101 -11 101 -40 0
-564 -52 -572 -57 -8 -5 -230 -27 -622 -62 -66 -6 -158 -16 -203 -22 l-84 -11
-33 32 -34 33 -242 -21 c-134 -12 -245 -24 -247 -27 -3 -3 2 -13 10 -22 9 -10
88 -127 177 -260 l161 -242 -120 -473 c-234 -928 -246 -970 -277 -995 -15 -12
-37 -24 -49 -27 -16 -4 -115 30 -301 103 -231 91 -684 264 -875 336 l-46 17
-84 -32 c-45 -18 -308 -123 -583 -233 -275 -110 -510 -202 -521 -204 -17 -4
-76 24 -111 51 -5 4 -62 234 -213 845 -130 528 -149 616 -137 630 13 16 145
221 262 409 32 51 56 94 53 97 -2 2 -113 14 -245 26 l-241 22 -30 -25 c-28
-23 -35 -25 -84 -17 -29 5 -206 22 -393 39 -187 16 -376 34 -420 40 -78 9
-595 60 -615 60 -6 0 -10 -41 -10 -103z m396 -48 l141 -12 13 -84 c7 -46 11
-85 9 -87 -2 -2 -60 3 -129 10 -69 7 -135 13 -148 13 -14 1 -47 23 -83 58 -50
47 -59 61 -59 91 l0 35 58 -6 c31 -3 121 -11 198 -18z m6202 -20 c-3 -37 -10
-48 -60 -92 l-57 -49 -147 -14 c-81 -8 -149 -12 -151 -10 -4 4 15 157 20 162
1 1 88 11 192 22 105 11 194 20 198 21 5 1 7 -18 5 -40z m-5718 -24 c154 -12
405 -37 408 -40 2 -2 -20 -40 -49 -84 -62 -95 -34 -88 -294 -66 -93 8 -175 15
-181 15 -6 0 -17 35 -23 78 -7 42 -15 85 -18 96 -5 16 0 18 43 12 27 -3 78 -8
114 -11z m5136 -11 c-3 -9 -11 -48 -17 -88 -7 -39 -15 -75 -19 -79 -5 -6 -325
-36 -397 -37 -7 0 -38 37 -68 83 -52 78 -54 82 -33 85 58 8 477 50 507 51 27
1 32 -2 27 -15z m-4199 -26 l32 -3 -71 -105 c-39 -58 -104 -151 -144 -206
l-73 -101 -138 4 c-76 3 -141 5 -144 6 -3 1 65 97 152 212 l157 211 98 -8 c55
-4 113 -8 131 -10z m3492 -190 c88 -117 159 -213 158 -214 -1 -1 -65 -4 -143
-8 l-141 -7 -59 85 c-139 198 -226 327 -223 330 3 3 159 19 226 24 17 2 54
-41 182 -210z m-4803 16 l90 -6 67 -106 c36 -59 65 -107 64 -107 -1 -1 -64 3
-139 8 l-138 10 0 30 c0 31 -25 70 -95 146 l-40 44 50 -6 c28 -4 91 -9 141
-13z m5904 3 c-8 -7 -41 -40 -73 -75 -53 -56 -58 -66 -55 -100 l3 -37 -130 -5
c-72 -3 -132 -5 -134 -3 -2 1 27 49 63 107 l67 104 107 7 c59 3 114 8 122 9 8
2 22 4 30 5 13 0 13 -1 0 -12z m-5396 -103 l58 -6 -58 -59 -59 -60 -70 5 -70
4 -17 59 c-10 32 -18 62 -18 66 0 8 94 4 234 -9z m4930 -31 c-8 -27 -17 -58
-20 -70 -6 -21 -12 -23 -83 -23 l-78 0 -51 54 c-29 30 -52 57 -52 60 0 3 30 7
68 7 55 1 156 9 219 17 9 2 8 -10 -3 -45z m-5353 -283 c-1 -41 -15 -291 -31
-555 -16 -264 -36 -615 -45 -780 -19 -364 -44 -767 -47 -770 -2 -1 -57 -5
-124 -8 l-121 -7 -18 80 c-16 70 -17 90 -6 162 67 473 178 1307 228 1726 l28
233 69 -3 69 -3 -2 -75z m514 -4 c3 -34 5 -63 3 -65 -3 -5 -32 -4 -265 5
l-163 7 0 62 c0 34 2 64 4 66 2 2 96 0 209 -5 l205 -9 7 -61z m5175 77 c0 -5
27 -213 60 -463 56 -417 106 -767 191 -1342 l32 -216 -23 -82 c-13 -45 -28
-84 -34 -86 -6 -2 -65 2 -131 9 l-120 12 -2 65 c-5 120 -43 811 -68 1225 -14
226 -30 493 -35 595 -6 102 -12 206 -14 232 l-4 47 66 4 c37 2 70 4 75 5 4 1
7 -1 7 -5z m-228 -65 c2 -35 3 -64 2 -66 -1 -2 -97 -6 -213 -10 l-212 -7 6 50
c4 28 9 58 11 67 5 18 17 19 311 26 l91 2 4 -62z m-4453 -110 c18 -73 61 -243
96 -378 35 -135 96 -368 135 -519 39 -151 69 -275 68 -276 -8 -7 -314 -23
-319 -17 -3 4 -36 165 -74 357 -37 193 -96 488 -129 658 l-61 307 125 0 125 0
34 -132z m3774 -95 c-150 -779 -212 -1096 -216 -1099 -4 -4 -319 16 -324 20
-1 1 6 31 16 66 21 71 244 919 295 1118 l31 122 121 0 121 0 -44 -227z m-4242
18 c4 -3 10 -30 14 -58 l7 -53 -236 0 -236 0 0 66 0 66 223 -7 c122 -4 225
-10 228 -14z m4929 -46 l0 -65 -235 0 -236 0 6 38 c15 89 2 81 128 85 61 1
163 4 225 5 l112 2 0 -65z m-5153 -209 c1 -1 14 -125 28 -276 36 -393 134
-1380 139 -1410 l5 -25 -240 0 -239 0 0 55 c0 30 4 125 10 210 8 129 31 601
66 1329 l6 133 112 -7 c61 -4 112 -8 113 -9z m5168 -361 c15 -376 24 -544 50
-1010 8 -143 15 -274 15 -292 l0 -32 -231 -1 -231 0 6 62 c4 35 17 200 31 368
73 907 95 1170 100 1217 l6 52 117 3 c64 2 118 3 119 3 1 -1 9 -167 18 -370z
m-4886 313 c6 -29 42 -224 81 -433 57 -305 237 -1240 255 -1318 3 -14 0 -17
-13 -12 -17 7 -206 62 -288 84 l-41 11 -7 73 c-36 384 -134 1356 -151 1492
-21 172 -29 155 69 155 l85 0 10 -52z m4526 20 c-9 -59 -92 -858 -149 -1437
l-21 -224 -141 -72 -140 -72 80 -6 c45 -4 299 -11 566 -17 267 -5 526 -13 576
-16 l91 -6 11 -105 c7 -59 11 -107 9 -108 -1 -2 -236 -8 -522 -14 -381 -9
-568 -9 -700 -1 -196 11 -235 17 -235 31 0 5 9 51 21 102 59 267 216 1034 330
1617 27 140 54 279 60 308 l10 52 80 0 80 0 -6 -32z m-2415 -640 c0 -82 -23
-312 -36 -355 l-14 -52 35 -47 c20 -26 34 -52 32 -58 -2 -6 -42 -14 -93 -19
-360 -31 -1077 -111 -1096 -123 -4 -3 -8 -1 -8 3 0 11 123 104 193 147 l57 34
-51 47 c-28 26 -49 48 -47 49 20 13 1003 394 1021 395 4 1 7 -9 7 -21z m425
-81 c343 -129 725 -285 725 -297 0 -4 -23 -26 -51 -50 l-51 -43 44 -25 c57
-33 209 -145 204 -150 -3 -2 -139 12 -303 32 -164 20 -420 47 -570 60 -150 13
-277 27 -283 31 -17 11 -11 32 23 77 33 42 33 45 20 82 -11 32 -32 265 -33
358 l0 27 78 -28 c42 -16 131 -49 197 -74z m-1738 -269 l95 -63 -138 -132
c-121 -115 -140 -129 -150 -115 -19 27 -175 331 -175 339 0 4 60 13 133 19 73
6 134 12 136 12 2 1 46 -26 99 -60z m2991 46 c67 -3 124 -9 126 -13 3 -6 -152
-294 -185 -342 l-16 -23 -141 129 c-78 71 -142 132 -142 135 1 3 44 33 98 68
61 39 104 61 117 58 11 -3 75 -8 143 -12z m-1690 -464 c33 -22 66 -40 73 -40
8 0 47 18 87 40 51 28 80 38 100 35 41 -8 643 -35 930 -42 l253 -6 113 -92
c62 -50 126 -101 142 -112 l28 -21 -54 -50 c-30 -27 -79 -70 -108 -94 l-53
-45 -52 13 c-120 32 -542 125 -667 148 -363 67 -865 73 -1240 16 -154 -23
-287 -52 -638 -136 l-272 -66 -116 102 c-135 120 -140 92 40 239 l121 100 290
5 c278 5 885 33 894 42 2 2 19 4 37 4 20 0 53 -14 92 -40z m-1723 -544 c14
-66 24 -121 22 -123 -2 -2 -55 -6 -116 -10 l-113 -6 6 -28 c3 -16 26 -178 51
-361 42 -309 92 -628 99 -635 5 -5 42 343 81 752 l7 71 119 71 c76 45 118 65
115 55 -15 -48 -89 -380 -120 -539 -72 -372 -80 -453 -81 -818 0 -181 4 -459
8 -616 l8 -286 -117 -7 c-64 -4 -118 -5 -121 -3 -2 3 -8 60 -14 128 -13 175
-32 350 -83 774 -39 323 -168 1346 -171 1352 -3 6 -805 70 -929 74 l-68 2 6
46 c3 25 8 76 12 112 l6 66 442 6 c454 6 852 23 896 36 14 5 26 8 27 7 1 -1
14 -55 28 -120z m1695 -1506 l0 -1500 -619 0 -619 0 -8 78 c-4 42 -8 437 -8
877 -1 706 1 818 17 955 37 323 74 478 153 639 49 101 66 125 143 202 73 72
102 94 181 132 156 76 342 108 678 115 l82 2 0 -1500z m460 1486 c267 -8 437
-50 583 -145 238 -156 351 -416 403 -927 16 -153 19 -273 19 -814 0 -349 -4
-741 -9 -870 l-8 -235 -614 3 -614 2 0 423 c0 232 -3 906 -7 1498 l-6 1077 44
-4 c24 -2 118 -6 209 -8z m1347 -270 c72 -43 65 -18 88 -286 9 -102 29 -277
43 -389 l28 -205 26 170 c15 93 43 295 63 449 48 389 35 345 103 345 31 0 81
-3 110 -7 l53 -6 -6 -41 c-120 -899 -227 -1790 -246 -2058 l-12 -168 -41 0
c-23 0 -79 3 -124 7 l-84 6 6 61 c3 34 11 267 17 518 16 657 -6 868 -151 1490
-23 95 -44 186 -47 202 l-6 29 59 -40 c32 -22 87 -56 121 -77z m1343 -18 c0
-31 159 -978 239 -1418 37 -206 67 -376 66 -377 -1 -2 -165 -14 -375 -27 l-76
-5 -22 362 c-43 692 -81 1322 -84 1394 l-4 72 86 6 c47 3 94 7 105 9 55 9 65
6 65 -16z m-5845 -72 c-3 -28 -12 -175 -20 -326 -8 -151 -21 -403 -30 -560 -8
-157 -19 -357 -25 -445 -5 -88 -13 -219 -16 -291 l-7 -130 -51 3 c-188 11
-371 24 -372 26 -1 1 38 236 86 522 48 286 113 684 144 885 32 201 59 370 60
375 2 7 43 7 120 1 l116 -10 -5 -50z m5409 -33 c4 -43 13 -190 21 -328 8 -137
26 -430 39 -650 14 -220 28 -454 31 -520 3 -66 8 -142 12 -169 l5 -49 -278 8
c-154 4 -281 9 -283 11 -8 8 165 1741 174 1752 3 3 176 18 236 21 l36 1 7 -77z
m-5031 51 c51 -4 90 -11 92 -18 5 -12 171 -1555 181 -1677 l6 -75 -276 -3
-277 -3 6 64 c3 35 14 241 25 458 11 217 27 523 35 680 8 157 17 354 21 438
l7 153 46 -5 c25 -3 86 -8 134 -12z m5811 -2056 c-2 -29 -9 -147 -14 -263 -6
-115 -13 -234 -16 -262 -6 -49 -8 -53 -38 -58 -86 -15 -674 -96 -796 -110 -52
-6 -171 11 -384 57 l-48 10 6 72 c3 39 10 163 16 276 5 113 13 231 16 262 l6
58 431 3 c238 1 521 3 629 5 l197 2 -5 -52z m-5983 35 l465 -6 21 -321 c11
-177 17 -323 12 -326 -4 -3 -93 -21 -198 -40 -209 -37 -187 -37 -486 4 -55 8
-206 28 -335 46 -129 17 -236 33 -239 35 -3 4 -30 510 -31 588 l0 27 163 0
c90 0 373 -3 628 -7z m893 -245 c9 -65 28 -399 23 -404 -4 -4 -240 -25 -243
-21 -1 1 -7 79 -13 172 -6 94 -13 196 -16 227 l-5 57 78 4 c42 1 98 4 124 5
l47 2 5 -42z m3641 27 c10 -2 4 -195 -11 -383 l-6 -73 -126 7 c-70 4 -128 8
-130 9 -2 1 4 101 13 221 8 121 15 222 15 227 0 6 219 0 245 -8z"/>
<path d="M4537 3758 l-87 -59 0 -119 0 -118 63 -45 c105 -74 93 -74 191 -9
l86 57 0 120 -1 120 -83 57 -82 56 -87 -60z"/>
<path d="M5529 3762 l-84 -58 -3 -121 -3 -121 81 -51 c45 -28 86 -52 91 -54 5
-1 47 23 94 53 l85 55 0 120 0 120 -62 40 c-33 22 -73 48 -88 57 -26 18 -27
18 -111 -40z"/>
</g>
</svg>
